<svg xmlns="http://www.w3.org/2000/svg" xmlns:xlink="http://www.w3.org/1999/xlink" viewBox="0 0 479.51 465.04"><defs><style>.cls-1,.cls-23{fill:none;}.cls-2{fill:#f0f0f0;}.cls-3{fill:#e0e0e0;}.cls-4{fill:#37474f;}.cls-5{fill:#263238;}.cls-6,.cls-7{fill:#27debf;}.cls-23,.cls-7{stroke:#fff;}.cls-7{stroke-miterlimit:10;}.cls-8{fill:#455a64;}.cls-21,.cls-22,.cls-9{fill:#fff;}.cls-10{fill:#ffa8a7;}.cls-11{fill:#f28f8f;}.cls-12{fill:#e6e6e6;}.cls-13{opacity:0.25;}.cls-14{opacity:0.2;}.cls-15{opacity:0.1;}.cls-16{fill:#f5f5f5;}.cls-17{fill:#fafafa;}.cls-18{opacity:0.15;}.cls-19{clip-path:url(#clip-path);}.cls-20{opacity:0.4;}.cls-21{opacity:0.7;}.cls-22,.cls-24{opacity:0.5;}.cls-23{stroke-linecap:round;stroke-linejoin:round;stroke-width:1.05px;}</style><clipPath id="clip-path" transform="translate(-10.24 -15.71)"><path id="_Clipping_Path_" data-name="&lt;Clipping Path&gt;" class="cls-1" d="M220.63,263.77l-20.73,12-12.74,7.34c-.41.21-.81.45-1.2.7a16.91,16.91,0,0,0-8.09,14.53v59.55A16.85,16.85,0,0,1,171,371.52,17.26,17.26,0,0,1,160.72,375a17,17,0,0,1-8.52-2.31,51.33,51.33,0,0,1-25.65-44.44V266.46A51.33,51.33,0,0,0,100.89,222L195,167.71h0a51.38,51.38,0,0,1,25.67,44.46v26.9C220.64,246.77,220.63,263.77,220.63,263.77Z"/></clipPath></defs><title>3169208</title><g id="Floor"><ellipse id="Floor-2" data-name="Floor" class="cls-2" cx="239.76" cy="326.62" rx="239.76" ry="138.42"/></g><g id="Shadows"><ellipse id="Shadow" class="cls-3" cx="383" cy="324.25" rx="43.59" ry="25.17"/><polygon id="Shadow-2" data-name="Shadow" class="cls-3" points="104.76 342.09 299.74 454.67 389.1 403.07 194.08 290.47 104.76 342.09"/><path id="Shadow-3" data-name="Shadow" class="cls-3" d="M80.34,380,40,356.71a1.32,1.32,0,0,1,0-2.5l141.9-81.93a4.79,4.79,0,0,1,4.33,0l40.35,23.3a1.32,1.32,0,0,1,0,2.5L84.67,380A4.79,4.79,0,0,1,80.34,380Z" transform="translate(-10.24 -15.71)"/></g><g id="Device"><g id="Device-2" data-name="Device"><g id="Device-3" data-name="Device"><g id="_Group_" data-name="&lt;Group&gt;"><path id="_Compound_Path_" data-name="&lt;Compound Path&gt;" class="cls-4" d="M207.91,24.66,88.13,93.8a9.7,9.7,0,0,0-4.35,7.55V371.46c0,2.77,2,3.9,4.35,2.51l119.78-69.14a9.67,9.67,0,0,0,4.35-7.55V27.18C212.26,24.4,210.3,23.27,207.91,24.66ZM206,272.39c0,2.38-1.67,3.89-3.74,5.08L93.35,340.34c-2,1.19-3.73.23-3.73-2.16V126.6a8.31,8.31,0,0,1,3.73-6.48l108.9-62.86c2.07-1.19,3.74-.22,3.74,2.15Z" transform="translate(-10.24 -15.71)"/></g><g id="_Group_2" data-name="&lt;Group&gt;"><path id="_Path_" data-name="&lt;Path&gt;" class="cls-5" d="M87.59,374.24a9.71,9.71,0,0,1-8.17-.27l-5-2.88a9.58,9.58,0,0,1-4.37-7.54V93.46a8.3,8.3,0,0,1,.75-3.26,11.2,11.2,0,0,1,.52-1h0l13.71,7.91h0a13,13,0,0,0-.76,1.6,8,8,0,0,0-.53,2.69V371.46C83.78,374,85.45,375.18,87.59,374.24Z" transform="translate(-10.24 -15.71)"/></g><path id="_Path_2" data-name="&lt;Path&gt;" class="cls-6" d="M149.05,315.66c3.8-2.19,6.88-.41,6.88,4a15.19,15.19,0,0,1-6.88,11.91c-3.79,2.2-6.87.42-6.87-4A15.23,15.23,0,0,1,149.05,315.66Z" transform="translate(-10.24 -15.71)"/><g id="_Group_3" data-name="&lt;Group&gt;"><path id="_Path_3" data-name="&lt;Path&gt;" d="M148,65.06c1.61-.93,2.92-.18,2.92,1.68A6.45,6.45,0,0,1,148,71.8c-1.61.93-2.92.18-2.92-1.68A6.45,6.45,0,0,1,148,65.06Z" transform="translate(-10.24 -15.71)"/><path id="_Path_4" data-name="&lt;Path&gt;" d="M136.75,82.82l22.54-13c1.35-.77,2.44-.22,2.44,1.24a5.22,5.22,0,0,1-2.44,4l-22.54,13c-1.35.77-2.44.22-2.44-1.24A5.22,5.22,0,0,1,136.75,82.82Z" transform="translate(-10.24 -15.71)"/></g><path id="_Path_5" data-name="&lt;Path&gt;" class="cls-7" d="M206,272.17c0,2.38-1.67,3.89-3.74,5.08L93.35,340.12c-2,1.19-3.73.23-3.73-2.16V126.38a8.31,8.31,0,0,1,3.73-6.48L202.25,57c2.07-1.2,3.74-.23,3.74,2.15Z" transform="translate(-10.24 -15.71)"/><g id="_Group_4" data-name="&lt;Group&gt;"><path id="_Path_6" data-name="&lt;Path&gt;" class="cls-8" d="M212.21,26.48c-.31-2.26-2.12-3.08-4.3-1.82L88.13,93.8a8.79,8.79,0,0,0-3.07,3.26L71.35,89.15a8.86,8.86,0,0,1,3.09-3.24L194.19,16.76a9.64,9.64,0,0,1,8.72,0l5,2.87A9.74,9.74,0,0,1,212.21,26.48Z" transform="translate(-10.24 -15.71)"/></g></g><path class="cls-9" d="M122.08,155a7.26,7.26,0,0,1,3.42-1.11,4,4,0,0,1,2.67.85,5.8,5.8,0,0,1,1.76,2.68,14.19,14.19,0,0,1,.72,4.28c0,.58,0,1.11,0,1.6v2.77q0,.72,0,1.56a24.21,24.21,0,0,1-.71,5.13,22.21,22.21,0,0,1-1.72,4.67,18.43,18.43,0,0,1-2.62,3.91,13.43,13.43,0,0,1-3.39,2.81l-7.32,4.23a.39.39,0,0,1-.51,0,.87.87,0,0,1-.22-.67v-27a2.1,2.1,0,0,1,.22-.92,1.39,1.39,0,0,1,.51-.63Zm3.55,9.43c-.11-3.13-1.34-4-3.69-2.67l-2.76,1.6V179.2l2.9-1.67q3.42-2,3.55-6.85c0-.6,0-1.15,0-1.67v-3Q125.66,165.28,125.63,164.41Z" transform="translate(-10.24 -15.71)"/><path class="cls-9" d="M143.31,142.72c.36-.2.64-.21.83,0a1.48,1.48,0,0,1,.39.69l5.92,22.89a2,2,0,0,1,.1.56,1.86,1.86,0,0,1-.17.75,1.11,1.11,0,0,1-.42.51l-3.42,2c-.36.21-.62.24-.77.09a.93.93,0,0,1-.29-.53l-.76-3-7.21,4.16-.76,3.91a3.48,3.48,0,0,1-.28.85,1.87,1.87,0,0,1-.78.8l-3.41,2a.3.3,0,0,1-.42,0,.7.7,0,0,1-.18-.54,3.83,3.83,0,0,1,.11-.69l5.91-29.72a5.32,5.32,0,0,1,.39-1.14,2,2,0,0,1,.83-.94Zm-4.39,20.79,4.39-2.54-2.19-8.75Z" transform="translate(-10.24 -15.71)"/><path class="cls-9" d="M164.79,130.32a.41.41,0,0,1,.52,0,.91.91,0,0,1,.21.67v4.42a2.17,2.17,0,0,1-.21.92,1.36,1.36,0,0,1-.52.63L160,139.76v21.42a2.1,2.1,0,0,1-.22.92,1.39,1.39,0,0,1-.51.63l-3.56,2.05a.39.39,0,0,1-.51,0,.87.87,0,0,1-.22-.67V142.66l-4.77,2.75a.4.4,0,0,1-.52,0,.93.93,0,0,1-.21-.67v-4.43a2.2,2.2,0,0,1,.21-.92,1.47,1.47,0,0,1,.52-.63Z" transform="translate(-10.24 -15.71)"/><path class="cls-9" d="M176.1,123.79c.36-.2.64-.21.83,0a1.48,1.48,0,0,1,.39.69l5.91,22.89a2.09,2.09,0,0,1,.11.56,1.72,1.72,0,0,1-.18.75,1,1,0,0,1-.42.51l-3.41,2q-.54.32-.78.09a1,1,0,0,1-.28-.53l-.76-3-7.21,4.16-.76,3.91a3.05,3.05,0,0,1-.29.85,1.79,1.79,0,0,1-.77.8l-3.42,2a.31.31,0,0,1-.42,0,.74.74,0,0,1-.17-.54,3.58,3.58,0,0,1,.1-.69l5.92-29.72a5.32,5.32,0,0,1,.39-1.14,2,2,0,0,1,.83-.94Zm-4.39,20.79L176.1,142l-2.2-8.75Z" transform="translate(-10.24 -15.71)"/></g></g><g id="Character"><g id="Character-2" data-name="Character"><g id="_Group_5" data-name="&lt;Group&gt;"><g id="_Group_6" data-name="&lt;Group&gt;"><path id="_Path_7" data-name="&lt;Path&gt;" class="cls-10" d="M387.39,127.45c-6.35.3-8.52,1.51-11.85,5.43s-18.91,32.85-18.91,32.85,2.94,8.24,9.37,7.54l12-19.39Z" transform="translate(-10.24 -15.71)"/></g></g><path id="_Path_8" data-name="&lt;Path&gt;" class="cls-3" d="M388.24,127.46s-4.57-.59-7.82.59-4.88,3.53-7.12,6.95c-1.73,2.65-7.81,13.64-7.81,13.64s3,8.23,11.37,8.23Z" transform="translate(-10.24 -15.71)"/><g id="Character-3" data-name="Character"><g id="_Group_7" data-name="&lt;Group&gt;"><path id="_Path_9" data-name="&lt;Path&gt;" class="cls-5" d="M410,333.91v-1.38c-.55,1.62-3.06,8.57-6.88,12.05-3,2.77-7.18,6-8.23,9.05s5.76,4.29,8.6,3.79c3.29-.58,7.56-2.45,9.88-5.3,1.63-2,2.67-4.38,3.83-6s3.85-3.34,4.48-5.16c.35-1-.06-3.2-.55-5.06-.44-1.7-.93-3.57-1.51-3.41v1.05a7.67,7.67,0,0,1-4.81,1.63C413.4,335.26,410,335,410,333.91Z" transform="translate(-10.24 -15.71)"/><path id="_Path_10" data-name="&lt;Path&gt;" class="cls-10" d="M400.37,347c.94-.85,1.89-1.67,2.75-2.45,2.67-2.43,4.7-6.56,5.87-9.38a13.32,13.32,0,0,0,1-5.06v-5.49h9.62v8.93h0v.24l-.05,0c-.46,2-4.88,7.32-7.39,10.78-1.68,2.33-4.87,5.29-8.69,5.8C399.87,350.9,398,349.76,400.37,347Z" transform="translate(-10.24 -15.71)"/><path id="_Path_11" data-name="&lt;Path&gt;" class="cls-5" d="M376,324.42V323c-.54,1.62-3.06,8.57-6.88,12-3,2.77-7.17,6-8.23,9.06s5.77,4.29,8.6,3.78c3.3-.58,7.56-2.45,9.88-5.3,1.63-2,2.67-4.38,3.84-6s3.85-3.34,4.48-5.16c.35-1-.07-3.2-.55-5.05s-.93-3.58-1.51-3.42v1a7.55,7.55,0,0,1-4.81,1.63C379.43,325.77,376,325.49,376,324.42Z" transform="translate(-10.24 -15.71)"/><path id="_Path_12" data-name="&lt;Path&gt;" class="cls-10" d="M366.4,337.53c.94-.84,1.88-1.66,2.74-2.45,2.67-2.43,4.71-6.56,5.87-9.38a13.09,13.09,0,0,0,1-5.06v-5.49h9.63v8.93h0v.24l0,0c-.46,2-4.88,7.32-7.39,10.79-1.68,2.32-4.88,5.28-8.7,5.79C365.89,341.41,364,340.27,366.4,337.53Z" transform="translate(-10.24 -15.71)"/><path id="_Path_13" data-name="&lt;Path&gt;" class="cls-8" d="M417.71,184.33c7.46,16.3-.27,73.7-.27,73.7.22,2.65,3.25,7.85,4.37,19.49,1.33,13.76-2.09,48.29-2.09,48.29a10.42,10.42,0,0,1-9.72.39s-9.18-52-10.9-65.69c-1.51-11.93-4.4-38.17-4.4-38.17l-4.64,38.11a70.53,70.53,0,0,1,2.6,11.77c.78,8-7,45.5-7,45.5s-3.32,1.22-9.63.29c0,0-2.75-49.7-3.48-59.39-1.22-16.27-.47-67,2.52-76.68Z" transform="translate(-10.24 -15.71)"/><path id="_Path_14" data-name="&lt;Path&gt;" class="cls-4" d="M394.7,222.34l-2.42-15.14s-10.25-2.12-14.9-6.49c0,0,4.88,6.06,12.12,8l2.73,11.65-1.86,37.5Z" transform="translate(-10.24 -15.71)"/></g><path id="_Path_15" data-name="&lt;Path&gt;" class="cls-2" d="M404.54,127.71h0c2.84.19,3.79.13,5.85.34,4.11.42,5.1,6.44,6.79,10a16.39,16.39,0,0,1,.45,12.33L411,169.65s3.12,7.55,6.75,14.68c-16.73,9.33-37.62,4.43-42.65-2.39-.22-1.44,1.08-12.74,1.87-20.12-2.94-7.39-3.72-12.08-2.48-17,2.31-9.07,10.58-17.42,12.94-17.41Z" transform="translate(-10.24 -15.71)"/><g id="_Group_8" data-name="&lt;Group&gt;"><path class="cls-8" d="M418.84,91.1l-3.46-.3a2.68,2.68,0,0,0,1-1,3,3,0,0,0-1.11-3.94l-2.23,4.06a20.16,20.16,0,0,0-18.51-10l-1.79.09a20.19,20.19,0,0,0-19.09,21.24c.61,11.5,1.29,24.37,1.29,24.37l20.78-1.11A21.37,21.37,0,0,0,416,102l-.16-3a19.89,19.89,0,0,0-1.1-5.54,2.81,2.81,0,0,0,1,.29A2.94,2.94,0,0,0,418.84,91.1Z" transform="translate(-10.24 -15.71)"/><g id="_Group_9" data-name="&lt;Group&gt;"><path id="_Path_16" data-name="&lt;Path&gt;" class="cls-10" d="M377.41,102.56a41.33,41.33,0,0,0,.17,6.61c.79,10.36,4.29,12.74,6,13.39s5,0,8.09-.67V128s-3.77,5.41-3.34,8.24,6.5,3.19,10.44.19a18.22,18.22,0,0,0,5.54-8.11V114s2.29,2.74,5.66.23,3.19-8.25,1-10.2-6.56-1.13-7.22,1.76c0,0-7.3-.61-8.22-12.62C388.81,102,377.84,95.65,377.41,102.56Z" transform="translate(-10.24 -15.71)"/></g><path id="_Path_17" data-name="&lt;Path&gt;" class="cls-8" d="M403.76,105l.28,5.13h0a3.5,3.5,0,0,1-3.68-3.31l-.3-5.72Z" transform="translate(-10.24 -15.71)"/><g id="_Group_10" data-name="&lt;Group&gt;"><path id="_Path_18" data-name="&lt;Path&gt;" class="cls-5" d="M390.38,105.63a1.31,1.31,0,1,0,1.3-1.36A1.34,1.34,0,0,0,390.38,105.63Z" transform="translate(-10.24 -15.71)"/></g><g id="_Group_11" data-name="&lt;Group&gt;"><path id="_Path_19" data-name="&lt;Path&gt;" class="cls-11" d="M390.29,114.82l-3.49,1.32a1.83,1.83,0,0,0,2.38,1.15A2,2,0,0,0,390.29,114.82Z" transform="translate(-10.24 -15.71)"/></g><g id="_Group_12" data-name="&lt;Group&gt;"><path id="_Path_20" data-name="&lt;Path&gt;" class="cls-8" d="M391.81,99.78l3.05,1a1.55,1.55,0,0,0-1-2A1.69,1.69,0,0,0,391.81,99.78Z" transform="translate(-10.24 -15.71)"/></g><g id="_Group_13" data-name="&lt;Group&gt;"><path id="_Path_21" data-name="&lt;Path&gt;" class="cls-5" d="M379.18,106.2a1.32,1.32,0,0,0,1.3,1.35,1.35,1.35,0,0,0,1.31-1.37,1.31,1.31,0,1,0-2.61,0Z" transform="translate(-10.24 -15.71)"/></g><g id="_Group_14" data-name="&lt;Group&gt;"><polygon id="_Path_22" data-name="&lt;Path&gt;" class="cls-11" points="376.55 89.38 376.76 97.23 372.56 96.18 376.55 89.38"/></g><g id="_Group_15" data-name="&lt;Group&gt;"><path id="_Path_23" data-name="&lt;Path&gt;" class="cls-11" d="M391.68,121.89c3.31-.62,10.07-3,11-5.72a7,7,0,0,1-2.22,3.59c-1.95,1.86-8.77,4.2-8.77,4.2Z" transform="translate(-10.24 -15.71)"/></g></g><path id="_Path_24" data-name="&lt;Path&gt;" class="cls-12" d="M400.27,186.14c5.49-1.3,6.54-3.37,5.08-8.83a3.32,3.32,0,0,0-.17-.53c-1.07-2.58-5.37-1.05-5.37-1.05s1.76-2.19,3.73-5,2.86-7.4,3.12-10.64.79-9.73.79-9.73,4.28-2.56,2.61-7.24l6.6-4,1.24.86a16.81,16.81,0,0,1-.27,10.42L411,169.65a109.5,109.5,0,0,1,6.75,14.68c-12.33,6.88-26.91,6-35.75,2.37A48.86,48.86,0,0,0,400.27,186.14Z" transform="translate(-10.24 -15.71)"/><path id="_Compound_Path_2" data-name="&lt;Compound Path&gt;" class="cls-5" d="M404.94,104l-7.56.4a4.22,4.22,0,0,0-4.3-3.12l-.65,0a4.21,4.21,0,0,0-3.75,2.82,3.55,3.55,0,0,0-2.51-.94A3.1,3.1,0,0,0,384,104a4.21,4.21,0,0,0-3.79-2l-.65,0a4.22,4.22,0,0,0,.45,8.43l.65,0a4.22,4.22,0,0,0,4-4.43,4.53,4.53,0,0,0-.31-1.33,2.32,2.32,0,0,1,1.8-.72,2.77,2.77,0,0,1,2.28,1l0,0a4.1,4.1,0,0,0,0,.86,4.22,4.22,0,0,0,4.43,4l.65,0a4.21,4.21,0,0,0,4-4.44s0-.1,0-.15l6.76-.36A3.55,3.55,0,0,1,404.94,104Zm-24.29,5.67-.65,0a3.51,3.51,0,1,1-.37-7l.65,0a3.5,3.5,0,1,1,.37,7ZM393.5,109l-.66,0a3.51,3.51,0,0,1-.37-7l.65,0a3.51,3.51,0,0,1,.38,7Z" transform="translate(-10.24 -15.71)"/></g><g id="_Group_16" data-name="&lt;Group&gt;"><g id="_Group_17" data-name="&lt;Group&gt;"><polygon id="_Path_25" data-name="&lt;Path&gt;" class="cls-6" points="332.53 143.88 366.32 152.78 375.62 191.01 343.5 181.68 332.53 143.88"/><polygon id="_Path_26" data-name="&lt;Path&gt;" class="cls-13" points="332.53 143.88 366.32 152.78 375.62 191.01 343.5 181.68 332.53 143.88"/><path class="cls-14" d="M365.54,191.17c.22,2.07,1.67,4.46,5.89,6.48s12.44.89,12.44.89l-1.14-4.71Z" transform="translate(-10.24 -15.71)"/></g><g id="_Group_18" data-name="&lt;Group&gt;" class="cls-14"><path id="_Path_27" data-name="&lt;Path&gt;" d="M358,186.67c-.31.85-1.82,3.75-6.22,4.1l-.34-1.17Z" transform="translate(-10.24 -15.71)"/></g><g id="_Group_19" data-name="&lt;Group&gt;" class="cls-15"><path id="_Path_28" data-name="&lt;Path&gt;" d="M353,165.67l-.27-1.29c-.16-.71,1.83-.74,4.42-.07l5,1.29c2.6.68,4.83,1.8,5,2.51l.28,1.29Z" transform="translate(-10.24 -15.71)"/></g><g id="_Group_20" data-name="&lt;Group&gt;"><path id="_Path_29" data-name="&lt;Path&gt;" class="cls-4" d="M350.36,160.82c-.1-.44.71-.56,1.79-.26l2,.55s-.59-2.79,3.78-1.81,5.33,4.13,5.33,4.13l2.11.6c1.16.33,2.21,1,2.35,1.4l.25.8-17.4-4.58S350.46,161.27,350.36,160.82Z" transform="translate(-10.24 -15.71)"/></g><g id="_Group_21" data-name="&lt;Group&gt;"><path id="_Path_30" data-name="&lt;Path&gt;" class="cls-4" d="M352.76,162.2c1.59.38,2.25.6,2.49,1.69.27,1.26.39,2.17.39,2.17l7.7,2s-.37-1.59-.49-2.2.14-1,1.37-.67l.1-.49-12.07-3.08Z" transform="translate(-10.24 -15.71)"/></g><g id="_Group_22" data-name="&lt;Group&gt;"><path id="_Path_31" data-name="&lt;Path&gt;" class="cls-4" d="M352.49,165.79s-.12-.58-.28-1.29,1.83-.74,4.43-.07l5,1.29c2.6.68,4.83,1.8,5,2.51l.27,1.29Z" transform="translate(-10.24 -15.71)"/></g><g id="_Group_23" data-name="&lt;Group&gt;"><path id="_Path_32" data-name="&lt;Path&gt;" class="cls-10" d="M346.34,171.87s1.26,4.32,1.55,5.35,4.07,2.88,6.56,3.56,5.2,1.5,4,5c-1.08,3.2-5.17,3.93-7.25,3.84s-4.93-2.08-6.05-5.28c-1.43-4.09-.66-8.46-1.23-10.85S345.09,170.44,346.34,171.87Z" transform="translate(-10.24 -15.71)"/></g></g><path class="cls-10" d="M409.62,128c4.38.27,8.91,2.65,9.6,7.91s4.95,33,3.28,36.08c-3.87,7.21-29.37,20.92-31.91,22.09a28.46,28.46,0,0,1-11.76,3.16c-4,0-9.27-.09-11.95-3.68-2.37-3.19-3.71-9.08,1.65-8.07a58.32,58.32,0,0,0,12.29.54l-.62-2.57a12.45,12.45,0,0,1,4.09.67c2.68.8,5.11-1.5,9.84-4.42,6.09-3.77,15.36-11.73,15.36-11.73l-3.78-23.12S405.59,134.84,409.62,128Z" transform="translate(-10.24 -15.71)"/><path class="cls-3" d="M408.83,128a9.32,9.32,0,0,1,4.92.44c2.57,1,4.86,2.28,5.93,7.47S422.86,160,422.86,160s-5.61,4.06-14.74,2.13L404.83,145S402.28,132.92,408.83,128Z" transform="translate(-10.24 -15.71)"/></g></g><g id="Analysis"><g id="Analysis-2" data-name="Analysis"><polygon class="cls-8" points="86.37 203.84 193.28 142.12 193.28 156.93 86.37 218.66 86.37 203.84"/><polygon class="cls-5" points="90.65 206.31 90.65 211.25 189 154.46 189 149.53 90.65 206.31"/><polygon class="cls-4" points="86.37 203.84 82.1 201.37 189 139.65 193.28 142.12 86.37 203.84"/><polygon class="cls-5" points="82.1 201.37 86.37 203.84 86.37 218.66 82.1 216.19 82.1 201.37"/><g id="_Group_24" data-name="&lt;Group&gt;"><polygon id="_Path_33" data-name="&lt;Path&gt;" class="cls-4" points="394.26 396.44 300.18 450.73 300.18 448.32 394.25 394.03 394.26 396.44"/><path id="_Path_34" data-name="&lt;Path&gt;" class="cls-16" d="M220.63,263.77l-20.73,12-12.74,7.34c-.41.21-.81.45-1.2.7a16.91,16.91,0,0,0-8.09,14.53v59.55A16.85,16.85,0,0,1,171,371.52,17.26,17.26,0,0,1,160.72,375a17,17,0,0,1-8.52-2.31,51.33,51.33,0,0,1-25.65-44.44V266.46A51.33,51.33,0,0,0,100.89,222L195,167.71h0a51.38,51.38,0,0,1,25.67,44.46v26.9C220.64,246.77,220.63,263.77,220.63,263.77Z" transform="translate(-10.24 -15.71)"/><path class="cls-8" d="M254.84,431.93a51.29,51.29,0,0,1-25.66-44.42V327.92a51.2,51.2,0,0,0-4-19.93,51.31,51.31,0,0,0-21.63-24.5h0a17.1,17.1,0,0,0-25.64,14.83v59.51a17.12,17.12,0,0,1-25.66,14.84,51.33,51.33,0,0,1-25.65-44.44V266.46A51.33,51.33,0,0,0,100.89,222v2.46a49.32,49.32,0,0,1,23.55,42v61.77a53.58,53.58,0,0,0,26.71,46.26,19,19,0,0,0,19.21,0c.37-.21.73-.43,1.09-.67l0,0A19,19,0,0,0,180,357.86V298.31a15,15,0,0,1,22.5-13,49.29,49.29,0,0,1,24.6,42.6v59.59a53.55,53.55,0,0,0,26.71,46.25l56.63,32.68V464Z" transform="translate(-10.24 -15.71)"/><path id="_Path_35" data-name="&lt;Path&gt;" class="cls-17" d="M404.5,409.75,310.42,464l-55.58-32.1a51.29,51.29,0,0,1-25.66-44.42V327.92a51.2,51.2,0,0,0-4-19.93,53.6,53.6,0,0,0-2.85-5.73,51.3,51.3,0,0,0-18.78-18.77,16.94,16.94,0,0,0-16.36-.41l12.74-7.34,25.63-14.8,54.86-31.67.13-.08a16.93,16.93,0,0,1,17.08,0,51.29,51.29,0,0,1,25.65,44.43v59.58a51.33,51.33,0,0,0,25.65,44.44Z" transform="translate(-10.24 -15.71)"/><path class="cls-3" d="M227.07,327.92a49.29,49.29,0,0,0-24.6-42.6,15,15,0,0,0-22.5,13v59.55a19,19,0,0,1-8.48,15.93l0,0c-.36.24-.72.46-1.09.67l56.71-32.75Z" transform="translate(-10.24 -15.71)"/><path class="cls-18" d="M227.07,327.92a49.29,49.29,0,0,0-24.6-42.6,15,15,0,0,0-22.5,13v59.55a19,19,0,0,1-8.48,15.93l0,0c-.36.24-.72.46-1.09.67l56.71-32.75Z" transform="translate(-10.24 -15.71)"/></g><g class="cls-19"><path class="cls-6" d="M117.6,222.32a7.32,7.32,0,0,0,8,.6l67.13-38.75c2.52-1.46,3.11-4.18,1.14-5.88s-5.74-1.72-8.26-.27L118.44,216.8C115.92,218.25,115.62,220.63,117.6,222.32Z" transform="translate(-10.24 -15.71)"/><path class="cls-20" d="M171.73,207.66a.75.75,0,0,1-.38-1.39l31.39-18.12a.74.74,0,0,1,1,.27.75.75,0,0,1-.27,1L172.1,207.56A.74.74,0,0,1,171.73,207.66Z" transform="translate(-10.24 -15.71)"/><path class="cls-20" d="M174.15,211.7a.75.75,0,0,1-.65-.37.76.76,0,0,1,.27-1l31.39-18.12a.75.75,0,0,1,.75,1.29L174.52,211.6A.71.71,0,0,1,174.15,211.7Z" transform="translate(-10.24 -15.71)"/><path class="cls-20" d="M176.18,215.91a.75.75,0,0,1-.37-1.39L207.2,196.4a.74.74,0,0,1,1,.27.75.75,0,0,1-.28,1l-31.38,18.12A.75.75,0,0,1,176.18,215.91Z" transform="translate(-10.24 -15.71)"/><path class="cls-20" d="M177.82,220.29a.75.75,0,0,1-.65-.37.76.76,0,0,1,.27-1l31.39-18.12a.74.74,0,0,1,1,.27.75.75,0,0,1-.27,1l-31.39,18.12A.71.71,0,0,1,177.82,220.29Z" transform="translate(-10.24 -15.71)"/><path class="cls-20" d="M179,224.58a.73.73,0,0,1-.64-.37.74.74,0,0,1,.27-1L210,205.07a.73.73,0,0,1,1,.27.74.74,0,0,1-.27,1l-31.38,18.12A.75.75,0,0,1,179,224.58Z" transform="translate(-10.24 -15.71)"/><path class="cls-20" d="M179.82,229.19a.74.74,0,0,1-.37-1.39l31.38-18.12a.75.75,0,0,1,.75,1.29l-31.39,18.12A.69.69,0,0,1,179.82,229.19Z" transform="translate(-10.24 -15.71)"/><path class="cls-20" d="M180.26,234.11a.74.74,0,0,1-.37-1.39l31.38-18.12a.75.75,0,0,1,.75,1.29L180.63,234A.71.71,0,0,1,180.26,234.11Z" transform="translate(-10.24 -15.71)"/><path class="cls-20" d="M135.51,269.2a.54.54,0,0,1-.46-.27.53.53,0,0,1,.2-.72l76.15-44a.53.53,0,0,1,.72.19.52.52,0,0,1-.19.72l-76.16,44A.5.5,0,0,1,135.51,269.2Z" transform="translate(-10.24 -15.71)"/><path class="cls-20" d="M135.51,273.9a.54.54,0,0,1-.46-.27.53.53,0,0,1,.2-.72l76.15-44a.53.53,0,0,1,.72.2.51.51,0,0,1-.19.71l-76.16,44A.59.59,0,0,1,135.51,273.9Z" transform="translate(-10.24 -15.71)"/><path class="cls-20" d="M135.51,278.6a.54.54,0,0,1-.46-.27.53.53,0,0,1,.2-.72l76.15-44a.53.53,0,0,1,.53.92l-76.16,44A.59.59,0,0,1,135.51,278.6Z" transform="translate(-10.24 -15.71)"/><path class="cls-20" d="M135.51,283.3a.54.54,0,0,1-.46-.27.51.51,0,0,1,.2-.71l76.15-44a.53.53,0,0,1,.53.91l-76.16,44A.48.48,0,0,1,135.51,283.3Z" transform="translate(-10.24 -15.71)"/><path class="cls-20" d="M135.51,262.36a.52.52,0,0,1-.26-1l40.31-23.28a.53.53,0,1,1,.53.91l-40.32,23.28A.48.48,0,0,1,135.51,262.36Z" transform="translate(-10.24 -15.71)"/><path class="cls-6" d="M134.37,235.37a50,50,0,0,1,5.48,20,.76.76,0,0,0,1.24.65l2.24-1.29a2.3,2.3,0,0,0,1-2A54.16,54.16,0,0,0,142.5,242a58.75,58.75,0,0,0-3.61-9.22,1.27,1.27,0,0,0-1.77-.49l-2.21,1.27A1.41,1.41,0,0,0,134.37,235.37Z" transform="translate(-10.24 -15.71)"/><path class="cls-6" d="M141,226.06a53.32,53.32,0,0,1,5.4,11.5,50,50,0,0,1,2.41,12.59.75.75,0,0,0,1.22.66l2.24-1.3a2.3,2.3,0,0,0,1.06-2A53.41,53.41,0,0,0,150.9,235a51.43,51.43,0,0,0-5.36-11.43,1.43,1.43,0,0,0-1.87-.46l-2.23,1.24A1.2,1.2,0,0,0,141,226.06Z" transform="translate(-10.24 -15.71)"/><path class="cls-6" d="M155.38,232.39" transform="translate(-10.24 -15.71)"/><path class="cls-6" d="M158.72,230.46l-2.2,1.27a1.72,1.72,0,0,0-.74,1.91,51.24,51.24,0,0,1,2,11.34.75.75,0,0,0,1.22.65l2.24-1.29a2.31,2.31,0,0,0,1.06-2,53.75,53.75,0,0,0-2.06-11.31A1,1,0,0,0,158.72,230.46Z" transform="translate(-10.24 -15.71)"/><path class="cls-6" d="M167.68,221.52A1.12,1.12,0,0,0,166,221l-2.22,1.26a1.55,1.55,0,0,0-.64,1.87c.4,1,.78,2,1.16,3.14a49.51,49.51,0,0,1,2.4,12.58.76.76,0,0,0,1.23.66l2.24-1.29a2.33,2.33,0,0,0,1.06-2,53.5,53.5,0,0,0-2.45-12.56C168.47,223.57,168.09,222.53,167.68,221.52Z" transform="translate(-10.24 -15.71)"/><path class="cls-20" d="M137.06,253.33a.38.38,0,0,0-.51-.14l-.94.54c-.21-1.29-.45-2.57-.74-3.83l1.27-.73a.38.38,0,0,0-.38-.65l-1.08.63c-.32-1.27-.67-2.53-1.08-3.76l1.21-.69a.37.37,0,0,0-.37-.65l-1.09.63c-.42-1.2-.86-2.39-1.37-3.55a.36.36,0,0,0,0-.09l1.2-.69a.37.37,0,0,0,.14-.51.38.38,0,0,0-.51-.14l-1.13.65c-.52-1.17-1.1-2.33-1.73-3.49l1.19-.69a.37.37,0,0,0,.14-.51.38.38,0,0,0-.51-.14l-1.18.69c-.64-1.12-1.32-2.23-2.06-3.33l1.35-.77a.36.36,0,0,0,.13-.51.37.37,0,0,0-.51-.14l-1.38.81c-.8-1.15-1.63-2.29-2.53-3.42a.38.38,0,0,0-.59.47c.88,1.09,1.7,2.2,2.47,3.32l-1.28.74a.37.37,0,0,0,.18.69.32.32,0,0,0,.19,0l1.33-.76c.73,1.1,1.42,2.2,2.05,3.32l-1.49.86a.37.37,0,0,0,.19.69.29.29,0,0,0,.18,0l1.48-.85c.63,1.16,1.21,2.33,1.73,3.5l-1.54.89a.37.37,0,0,0,.19.69.31.31,0,0,0,.18-.05l1.47-.85v0c.51,1.18,1,2.4,1.39,3.63l-1.57.91a.37.37,0,0,0,.18.69.32.32,0,0,0,.19,0l1.45-.84c.41,1.24.76,2.49,1.07,3.77l-1.56.9a.37.37,0,0,0-.14.51.36.36,0,0,0,.32.18.32.32,0,0,0,.19,0l1.38-.79c.29,1.26.52,2.55.72,3.84l-1.69,1a.37.37,0,0,0,.19.69.31.31,0,0,0,.18-.05l1.44-.83c.22,1.57.37,3.17.46,4.79a.37.37,0,0,0,.37.35h0a.37.37,0,0,0,.35-.39c-.09-1.74-.26-3.46-.5-5.15l1.18-.68A.37.37,0,0,0,137.06,253.33Z" transform="translate(-10.24 -15.71)"/><g class="cls-18"><path class="cls-6" d="M140.88,326.42a58.62,58.62,0,0,1-.34-8.48c.3-1.09,4.84-16.68,13.2-21.53a5.45,5.45,0,0,1,1.65-.69,2.79,2.79,0,0,1,.68-.08c2.22,0,3.21,3.08,4.17,6.06a29.34,29.34,0,0,0,1.32,3.58c.57,1.2,1.54,2.79,3.38,2.79a4.72,4.72,0,0,0,2.29-.7c4-2.29,5.17-8.49,6.4-15.05a74.41,74.41,0,0,1,2-8.7c1.22-3.83,2.8-6.2,5-7.46a3.92,3.92,0,0,1,1.86-.61c2.33,0,3.21,4.15,4.06,8.16a33.22,33.22,0,0,0,1.7,6.15c.85,1.93,2,2.87,3.41,2.87A4.9,4.9,0,0,0,194,292c4.93-2.84,6.42-7.67,7.86-12.33,1.23-4,2.38-7.7,5.63-9.59a4.84,4.84,0,0,1,2.42-.76,3.21,3.21,0,0,1,1.07.18,21.22,21.22,0,0,1,.15,2.24l.06,9.44c.08,1.81.21,3.23.37,4.45Z" transform="translate(-10.24 -15.71)"/><path d="M212.14,285.88c-.21-1.41-.33-3-.42-4.73l-.05-9.44a21.56,21.56,0,0,0-.2-2.6,3.49,3.49,0,0,0-1.55-.35h0a5.32,5.32,0,0,0-2.68.83c-7.26,4.22-4.49,16.73-13.5,21.93a4.39,4.39,0,0,1-2.14.68c-1.35,0-2.25-1-2.93-2.56-2.12-4.78-2.07-14.61-6.24-14.61a4.3,4.3,0,0,0-2.12.68c-2.58,1.49-4.13,4.34-5.21,7.76-2.69,8.42-2.53,20.25-8.13,23.44a4.22,4.22,0,0,1-2,.64c-1.33,0-2.21-1-2.91-2.49-1.73-3.64-2.34-9.95-6-9.95a3.75,3.75,0,0,0-.79.09,6.24,6.24,0,0,0-1.8.75c-8.91,5.18-13.47,21.91-13.47,21.91a60.9,60.9,0,0,0,.43,9.41l1-.59a10.11,10.11,0,0,1-.17-1.13,61.06,61.06,0,0,1-.25-7.53c.42-1.48,4.89-16.47,12.95-21.16a5.14,5.14,0,0,1,1.5-.63,2.32,2.32,0,0,1,.56-.07c1.83,0,2.77,2.9,3.67,5.7a29.45,29.45,0,0,0,1.34,3.65c.37.76,1.47,3.09,3.86,3.09a5.09,5.09,0,0,0,2.55-.78c4.23-2.4,5.41-8.72,6.65-15.41a74.79,74.79,0,0,1,2-8.63c1.18-3.69,2.68-6,4.74-7.16a3.29,3.29,0,0,1,1.59-.54c1.9,0,2.78,4.11,3.55,7.74a33.76,33.76,0,0,0,1.72,6.25c.93,2.11,2.24,3.19,3.9,3.19a5.34,5.34,0,0,0,2.67-.83c5.11-2.95,6.7-8.1,8.1-12.64,1.2-3.86,2.32-7.5,5.4-9.29a4.31,4.31,0,0,1,2.15-.69h0a2.25,2.25,0,0,1,.58.07c.11,1.06.12,1.82.12,1.83l0,9.49c.08,1.63.19,3,.33,4.12a7.7,7.7,0,0,0,.21,1.1l.93-.54" transform="translate(-10.24 -15.71)"/></g><g class="cls-20"><path class="cls-6" d="M140,313.09v4.77a60.67,60.67,0,0,0,.43,9.41l71.7-41.39c-.21-1.41-.34-3-.42-4.74l-.05-9.43s0-14.11-9-8.93c-9.42,5.44-6.76,22.7-13.44,26.56s-4.48-11.52-13.44-6.34-4.48,16.69-13.44,21.86-4.48-20.92-13.44-15.75S140,307.14,140,313.09Z" transform="translate(-10.24 -15.71)"/></g><path class="cls-20" d="M136.73,334.55a.37.37,0,0,1-.32-.19.37.37,0,0,1,.14-.51l76.26-43.67a.37.37,0,0,1,.5.14.37.37,0,0,1-.13.51L136.92,334.5A.41.41,0,0,1,136.73,334.55Z" transform="translate(-10.24 -15.71)"/><path class="cls-9" d="M149,291.63a.38.38,0,0,1-.38-.37v-.75a.36.36,0,0,1,.37-.37.37.37,0,0,1,.37.37v.75A.38.38,0,0,1,149,291.63Z" transform="translate(-10.24 -15.71)"/><path class="cls-9" d="M149.16,320.31a.38.38,0,0,1-.37-.34c0-.48-.08-1-.11-1.44a.37.37,0,0,1,.35-.39.34.34,0,0,1,.39.34c0,.48.07.95.11,1.42a.37.37,0,0,1-.33.41Zm-.17-2.86a.38.38,0,0,1-.38-.37c0-.41,0-.89,0-1.44a.37.37,0,0,1,.37-.37c.22,0,.37.16.38.37,0,.54,0,1,0,1.43a.37.37,0,0,1-.37.38Zm0-2.87a.38.38,0,0,1-.37-.37v-1.44a.38.38,0,0,1,.37-.37h0a.38.38,0,0,1,.37.37v1.44a.38.38,0,0,1-.38.37Zm0-2.87a.37.37,0,0,1-.37-.37V309.9a.38.38,0,0,1,.38-.37h0a.38.38,0,0,1,.37.37v1.44a.37.37,0,0,1-.37.37Zm0-2.87a.38.38,0,0,1-.37-.37V307a.38.38,0,0,1,.75,0v1.44A.38.38,0,0,1,148.94,308.84Zm0-2.87a.37.37,0,0,1-.37-.37v-1.43a.37.37,0,1,1,.74,0v1.43A.37.37,0,0,1,148.94,306Zm0-2.87a.36.36,0,0,1-.37-.37V301.3a.37.37,0,1,1,.74,0v1.43A.36.36,0,0,1,148.94,303.1Zm0-2.87h0a.36.36,0,0,1-.37-.37v-1.43a.38.38,0,0,1,.37-.38.37.37,0,0,1,.37.38v1.43A.36.36,0,0,1,148.94,300.23Zm0-2.86h0a.38.38,0,0,1-.37-.38v-1.43a.38.38,0,0,1,.75,0V297A.39.39,0,0,1,148.94,297.37Zm0-2.87a.38.38,0,0,1-.37-.37V292.7a.38.38,0,0,1,.38-.38h0a.37.37,0,0,1,.37.37v1.44A.38.38,0,0,1,148.94,294.5Z" transform="translate(-10.24 -15.71)"/><path class="cls-9" d="M149.4,322.47a.38.38,0,0,1-.37-.32l-.09-.75a.37.37,0,1,1,.74-.08l.09.73a.37.37,0,0,1-.32.42Z" transform="translate(-10.24 -15.71)"/><path class="cls-9" d="M202.72,263.9a.38.38,0,0,1-.38-.38v-.74a.38.38,0,0,1,.38-.38h0a.38.38,0,0,1,.37.38v.74A.38.38,0,0,1,202.72,263.9Z" transform="translate(-10.24 -15.71)"/><path class="cls-9" d="M202.93,292.58a.38.38,0,0,1-.37-.34c-.05-.48-.08-1-.11-1.44a.38.38,0,0,1,.35-.4.36.36,0,0,1,.39.35c0,.48.07.95.11,1.42a.37.37,0,0,1-.34.41Zm-.17-2.86a.38.38,0,0,1-.38-.37c0-.41,0-.89,0-1.44a.37.37,0,0,1,.37-.37h0a.37.37,0,0,1,.37.37c0,.54,0,1,0,1.43a.37.37,0,0,1-.37.38Zm0-2.87a.37.37,0,0,1-.37-.37V285a.37.37,0,0,1,.37-.37h0a.38.38,0,0,1,.38.37v1.43a.37.37,0,0,1-.37.38Zm0-2.87a.38.38,0,0,1-.38-.37v-1.44a.38.38,0,0,1,.37-.37h0a.38.38,0,0,1,.38.37v1.44a.38.38,0,0,1-.37.37Zm0-2.87a.38.38,0,0,1-.37-.37V279.3a.37.37,0,0,1,.74,0v1.44A.37.37,0,0,1,202.71,281.11Zm0-2.87a.38.38,0,0,1-.38-.37v-1.44a.38.38,0,0,1,.75,0v1.44A.38.38,0,0,1,202.71,278.24Zm0-2.87a.37.37,0,0,1-.38-.37v-1.43a.38.38,0,1,1,.75,0V275A.37.37,0,0,1,202.71,275.37Zm0-2.87h0a.37.37,0,0,1-.38-.37V270.7a.37.37,0,0,1,.37-.38.38.38,0,0,1,.37.38v1.43A.37.37,0,0,1,202.71,272.5Zm0-2.86h0a.37.37,0,0,1-.37-.38v-1.43a.37.37,0,1,1,.74,0v1.43A.38.38,0,0,1,202.71,269.64Zm0-2.87h0a.38.38,0,0,1-.37-.38V265a.38.38,0,0,1,.75,0v1.44A.38.38,0,0,1,202.71,266.77Z" transform="translate(-10.24 -15.71)"/><path class="cls-9" d="M203.17,294.74a.38.38,0,0,1-.37-.32l-.09-.75a.36.36,0,0,1,.32-.41.37.37,0,0,1,.42.32l.09.74a.37.37,0,0,1-.32.42Z" transform="translate(-10.24 -15.71)"/><path class="cls-9" d="M175.83,285.41a.38.38,0,0,1-.38-.37v-.75a.38.38,0,0,1,.75,0V285A.38.38,0,0,1,175.83,285.41Z" transform="translate(-10.24 -15.71)"/><path class="cls-9" d="M176,305a.37.37,0,0,1-.37-.34c0-.46-.08-.93-.11-1.4a.38.38,0,0,1,.35-.4.36.36,0,0,1,.4.35c0,.46.06.92.1,1.38a.37.37,0,0,1-.33.41Zm-.17-2.79a.38.38,0,0,1-.38-.37v-1.4a.37.37,0,0,1,.37-.38h0a.38.38,0,0,1,.37.37l0,1.4a.38.38,0,0,1-.37.38Zm0-2.8a.36.36,0,0,1-.37-.37v-1.4a.38.38,0,0,1,.37-.38h0a.37.37,0,0,1,.37.38V299a.37.37,0,0,1-.37.37Zm0-2.8a.38.38,0,0,1-.38-.37v-1.4a.37.37,0,0,1,.37-.37h0a.37.37,0,0,1,.38.37v1.4a.38.38,0,0,1-.37.37Zm0-2.8a.37.37,0,0,1-.37-.37V292a.38.38,0,0,1,.75,0v1.4A.37.37,0,0,1,175.82,293.8Zm0-2.79h0a.38.38,0,0,1-.37-.38v-1.4a.38.38,0,0,1,.75,0v1.4A.38.38,0,0,1,175.82,291Zm0-2.8h0a.38.38,0,0,1-.37-.38v-1.39a.38.38,0,1,1,.75,0v1.4A.38.38,0,0,1,175.83,288.21Z" transform="translate(-10.24 -15.71)"/><path class="cls-9" d="M176.28,307.12a.38.38,0,0,1-.37-.32l-.09-.75a.36.36,0,0,1,.33-.41.37.37,0,0,1,.41.32l.09.74a.37.37,0,0,1-.32.42Z" transform="translate(-10.24 -15.71)"/><path class="cls-20" d="M148.94,287.64c.71-.41,1.29-.14,1.29.61a2.76,2.76,0,0,1-1.29,2.1c-.71.41-1.29.13-1.29-.61A2.73,2.73,0,0,1,148.94,287.64Z" transform="translate(-10.24 -15.71)"/><path class="cls-20" d="M175.83,281.42c.71-.41,1.29-.14,1.29.61a2.73,2.73,0,0,1-1.29,2.09c-.71.42-1.29.14-1.29-.6A2.73,2.73,0,0,1,175.83,281.42Z" transform="translate(-10.24 -15.71)"/><path class="cls-20" d="M202.71,261.42c.71-.41,1.29-.13,1.29.61a2.73,2.73,0,0,1-1.29,2.1c-.72.41-1.29.14-1.29-.61A2.72,2.72,0,0,1,202.71,261.42Z" transform="translate(-10.24 -15.71)"/><path class="cls-20" d="M137.23,296.32a.37.37,0,0,0,.14-.51.37.37,0,0,0-.51-.13l-1,.56v-3.85l1.35-.78a.37.37,0,0,0,.14-.51.38.38,0,0,0-.51-.14l-1,.57v-4.06a.38.38,0,0,0-.37-.37.37.37,0,0,0-.37.37V292l-1.36.78a.37.37,0,0,0-.13.51.36.36,0,0,0,.32.18.34.34,0,0,0,.19-.05l1-.56v3.85l-1.36.78a.37.37,0,0,0,.19.69.34.34,0,0,0,.19-.05l1-.56v3.85l-1.36.78a.36.36,0,0,0-.13.51.36.36,0,0,0,.32.19.37.37,0,0,0,.18-.05l1-.57v3.85l-1.36.78a.37.37,0,0,0-.14.51.39.39,0,0,0,.33.19.37.37,0,0,0,.18-.05l1-.57v3.85l-1.36.78a.37.37,0,0,0-.14.51.39.39,0,0,0,.33.19.41.41,0,0,0,.18,0l1-.57v3.85l-1.36.78a.38.38,0,0,0-.14.51.39.39,0,0,0,.33.19.41.41,0,0,0,.18-.05l1-.57v3.85l-1.36.78a.38.38,0,0,0-.14.51.38.38,0,0,0,.32.19.41.41,0,0,0,.19-.05l1-.57c0,1.28,0,2.56,0,3.83l-1.39.8a.37.37,0,0,0,.18.7.41.41,0,0,0,.19-.05l1.07-.62c.08,1.4.2,2.8.37,4.17a.38.38,0,0,0,.37.32h0a.37.37,0,0,0,.32-.42c-.18-1.47-.31-3-.39-4.48l1.28-.74a.37.37,0,0,0-.37-.65l-.94.54c0-1.27-.06-2.55,0-3.83l1.34-.78a.37.37,0,0,0,.14-.5.37.37,0,0,0-.51-.14l-1,.56v-3.85l1.34-.78a.37.37,0,1,0-.37-.64l-1,.56v-3.85l1.35-.78a.37.37,0,0,0,.13-.51.38.38,0,0,0-.51-.13l-1,.56v-3.85l1.35-.78a.37.37,0,0,0-.38-.64l-1,.56v-3.85l1.35-.78a.36.36,0,0,0,.13-.51.35.35,0,0,0-.5-.13l-1,.56V297.1Z" transform="translate(-10.24 -15.71)"/><path class="cls-6" d="M230.66,319.42,159,360.77c-2.52,1.45-6.17,1.28-8-.57s-1.07-4.69,1.45-6.14l71.6-41.34a6.54,6.54,0,0,1,7.68.86C233.61,315.44,233.18,318,230.66,319.42Z" transform="translate(-10.24 -15.71)"/><path class="cls-20" d="M138.06,339.53a.52.52,0,0,1-.26-1L218.47,292a.53.53,0,0,1,.53.91l-80.68,46.58A.48.48,0,0,1,138.06,339.53Z" transform="translate(-10.24 -15.71)"/><path class="cls-20" d="M139.71,343.9a.54.54,0,0,1-.46-.27.53.53,0,0,1,.19-.72l80.69-46.58a.52.52,0,0,1,.72.19.53.53,0,0,1-.19.72L140,343.82A.5.5,0,0,1,139.71,343.9Z" transform="translate(-10.24 -15.71)"/><path class="cls-20" d="M141.74,348.08a.53.53,0,0,1-.26-1l80.7-46.6a.53.53,0,0,1,.53.91L142,348A.68.68,0,0,1,141.74,348.08Z" transform="translate(-10.24 -15.71)"/><path class="cls-20" d="M144.15,352.06a.54.54,0,0,1-.46-.27.51.51,0,0,1,.19-.71l80.71-46.6a.53.53,0,0,1,.53.91L144.41,352A.48.48,0,0,1,144.15,352.06Z" transform="translate(-10.24 -15.71)"/></g><path class="cls-6" d="M214.58,274.9,281,236.57c2.52-1.45,6.53-2.31,8.78-1.4s1.83,3.27-.69,4.72L221.9,278.66c-2.52,1.46-6.1,1.61-8.1.53S212.06,276.35,214.58,274.9Z" transform="translate(-10.24 -15.71)"/><path class="cls-20" d="M222.28,285.44a.54.54,0,0,1-.46-.27.53.53,0,0,1,.2-.72l76.52-44.17a.53.53,0,0,1,.72.19.52.52,0,0,1-.2.72l-76.52,44.17A.5.5,0,0,1,222.28,285.44Z" transform="translate(-10.24 -15.71)"/><path class="cls-20" d="M225.45,288.86a.54.54,0,0,1-.46-.27.53.53,0,0,1,.2-.72l76.64-44.23a.51.51,0,0,1,.71.19.53.53,0,0,1-.19.72l-76.64,44.24A.59.59,0,0,1,225.45,288.86Z" transform="translate(-10.24 -15.71)"/><path class="cls-20" d="M238.14,328h0a.37.37,0,0,1-.37-.38v-4.06c0-3.05,0-3.05-.08-5.12v-.34A49.43,49.43,0,0,0,235,304.24a38.59,38.59,0,0,0-6.9-12.05.37.37,0,0,1,.58-.47,39.35,39.35,0,0,1,7,12.28,50,50,0,0,1,2.76,14l0,.35c.09,2.08.09,2.08.08,5.16l0,4.06A.38.38,0,0,1,238.14,328Z" transform="translate(-10.24 -15.71)"/><path class="cls-6" d="M237.37,296c-.34-.6-.71-1.18-1.1-1.76a1.18,1.18,0,0,1,.38-1.73l29.24-16.88a1.38,1.38,0,0,1,1.86.44c.35.57.69,1.18,1,1.81a1.41,1.41,0,0,1-.55,1.84l-29.08,16.78A1.27,1.27,0,0,1,237.37,296Z" transform="translate(-10.24 -15.71)"/><path class="cls-6" d="M240.22,302.78c.21.67.42,1.33.6,2a1,1,0,0,0,1.47.62l69.37-40.05a1.81,1.81,0,0,0,.81-1.93c-.19-.69-.39-1.36-.59-2a1,1,0,0,0-1.56-.59l-69.39,40.05A1.68,1.68,0,0,0,240.22,302.78Z" transform="translate(-10.24 -15.71)"/><path class="cls-21" d="M240.22,302.78c.21.67.42,1.33.6,2a1,1,0,0,0,1.47.62l69.37-40.05a1.81,1.81,0,0,0,.81-1.93c-.19-.69-.39-1.36-.59-2a1,1,0,0,0-1.56-.59l-69.39,40.05A1.68,1.68,0,0,0,240.22,302.78Z" transform="translate(-10.24 -15.71)"/><path class="cls-6" d="M242.24,312c.09.74.16,1.46.22,2.15a.75.75,0,0,0,1.22.66l47-27.13a2.27,2.27,0,0,0,1.05-2c-.06-.72-.14-1.43-.22-2.15a.82.82,0,0,0-1.32-.64l-47,27.12A2.14,2.14,0,0,0,242.24,312Z" transform="translate(-10.24 -15.71)"/><path class="cls-18" d="M242.24,312c.09.74.16,1.46.22,2.15a.75.75,0,0,0,1.22.66l47-27.13a2.27,2.27,0,0,0,1.05-2c-.06-.72-.14-1.43-.22-2.15a.82.82,0,0,0-1.32-.64l-47,27.12A2.14,2.14,0,0,0,242.24,312Z" transform="translate(-10.24 -15.71)"/><path class="cls-6" d="M242.62,321.59v2.12c0,.72.51,1,1.14.65l20.12-11.61a2.52,2.52,0,0,0,1.14-2v-2.12c0-.73-.51-1-1.14-.66l-20.12,11.62A2.52,2.52,0,0,0,242.62,321.59Z" transform="translate(-10.24 -15.71)"/><path class="cls-22" d="M242.62,321.59v2.12c0,.72.51,1,1.14.65l20.12-11.61a2.52,2.52,0,0,0,1.14-2v-2.12c0-.73-.51-1-1.14-.66l-20.12,11.62A2.52,2.52,0,0,0,242.62,321.59Z" transform="translate(-10.24 -15.71)"/><path class="cls-20" d="M314.3,288.18a.38.38,0,0,0-.38.38v1.81l-5.36,3.09v-1.35a.38.38,0,0,0-.75,0v1.78l-5.36,3.1v-1.33a.38.38,0,1,0-.75,0v1.76l-5.36,3.09v-1.3a.38.38,0,0,0-.37-.38.37.37,0,0,0-.37.38v1.73l-5.37,3.1v-1.28a.37.37,0,0,0-.74,0v1.71l-5.37,3.1v-1.26a.36.36,0,0,0-.37-.37.37.37,0,0,0-.37.37V308L278,311.09v-1.23a.38.38,0,0,0-.75,0v1.66l-5.36,3.1v-1.21a.38.38,0,0,0-.75,0v1.64l-5.36,3.09V317a.38.38,0,0,0-.75,0v1.61l-5.36,3.1v-1.16a.38.38,0,0,0-.75,0v1.59l-5.36,3.1v-1.14a.38.38,0,0,0-.75,0v1.57l-5.36,3.09v-1.11a.38.38,0,0,0-.75,0v1.54l-4.65,2.69a.37.37,0,0,0-.14.51.39.39,0,0,0,.33.19.32.32,0,0,0,.18-.06l4.28-2.47v1.52a.38.38,0,0,0,.75,0v-1.95l5.36-3.09V328a.38.38,0,0,0,.75,0v-1.92l5.36-3.1v1.47a.38.38,0,0,0,.75,0v-1.9l5.36-3.09v1.44a.38.38,0,0,0,.75,0V319l5.36-3.09v1.42a.38.38,0,0,0,.75,0v-1.85l5.36-3.1v1.4a.38.38,0,0,0,.75,0V312l5.36-3.09v1.37a.38.38,0,0,0,.37.37.37.37,0,0,0,.37-.37v-1.8l5.37-3.1v1.35a.37.37,0,0,0,.74,0V304.9l5.37-3.1v1.33a.37.37,0,0,0,.37.37.38.38,0,0,0,.37-.37v-1.76l5.36-3.09v1.3a.38.38,0,0,0,.75,0v-1.73l5.36-3.1V296a.38.38,0,0,0,.75,0v-1.71l5.36-3.09v1.25a.38.38,0,0,0,.75,0v-3.92A.38.38,0,0,0,314.3,288.18Z" transform="translate(-10.24 -15.71)"/><path class="cls-6" d="M255.49,337.37a13.38,13.38,0,0,0-3.9,1.58c-7.42,4.36-13.43,15.27-13.43,24.36,0,.25,0,.48,0,.71l13.41-6.14Z" transform="translate(-10.24 -15.71)"/><path class="cls-6" d="M255.49,337.37l-3.91,20.51,13.29-7.71a21.05,21.05,0,0,0,.15-2.49C265,340.2,261,336.22,255.49,337.37Z" transform="translate(-10.24 -15.71)"/><path class="cls-6" d="M263.19,357.08a28.54,28.54,0,0,0,1.68-6.91l-13.29,7.71Z" transform="translate(-10.24 -15.71)"/><path class="cls-6" d="M238.17,364c.3,8.6,6.2,12.19,13.42,8,5-2.86,9.28-8.67,11.6-15l-11.61.8Z" transform="translate(-10.24 -15.71)"/><path class="cls-21" d="M255.49,337.37l-3.91,20.51,13.29-7.71a21.05,21.05,0,0,0,.15-2.49C265,340.2,261,336.22,255.49,337.37Z" transform="translate(-10.24 -15.71)"/><path class="cls-18" d="M263.19,357.08a28.54,28.54,0,0,0,1.68-6.91l-13.29,7.71Z" transform="translate(-10.24 -15.71)"/><path class="cls-22" d="M238.17,364c.3,8.6,6.2,12.19,13.42,8,5-2.86,9.28-8.67,11.6-15l-11.61.8Z" transform="translate(-10.24 -15.71)"/><path class="cls-23" d="M255.49,337.37a13.38,13.38,0,0,0-3.9,1.58c-7.42,4.36-13.43,15.27-13.43,24.36,0,.25,0,.48,0,.71l13.41-6.14Z" transform="translate(-10.24 -15.71)"/><path class="cls-23" d="M255.49,337.37l-3.91,20.51,13.29-7.71a21.05,21.05,0,0,0,.15-2.49C265,340.2,261,336.22,255.49,337.37Z" transform="translate(-10.24 -15.71)"/><path class="cls-23" d="M263.19,357.08a28.54,28.54,0,0,0,1.68-6.91l-13.29,7.71Z" transform="translate(-10.24 -15.71)"/><path class="cls-23" d="M238.17,364c.3,8.6,6.2,12.19,13.42,8,5-2.86,9.28-8.67,11.6-15l-11.61.8Z" transform="translate(-10.24 -15.71)"/><path class="cls-6" d="M294.78,315.68c-4.37,5.26-7.36,12.61-7.36,19.07a13.75,13.75,0,0,0,1.7,7.12L300.86,327Z" transform="translate(-10.24 -15.71)"/><path class="cls-6" d="M306.92,308.64a11.17,11.17,0,0,0-6.06,1.72,23,23,0,0,0-6.08,5.32l6.08,11.3Z" transform="translate(-10.24 -15.71)"/><path class="cls-6" d="M313.05,312.93a7,7,0,0,0-6.13-4.29L300.86,327Z" transform="translate(-10.24 -15.71)"/><path class="cls-6" d="M313.05,312.93,300.86,327l-11.74,14.89c2.3,3.75,6.69,4.65,11.74,1.74,7.42-4.29,13.44-15.2,13.44-24.39A14.52,14.52,0,0,0,313.05,312.93Z" transform="translate(-10.24 -15.71)"/><path class="cls-21" d="M306.92,308.64a11.17,11.17,0,0,0-6.06,1.72,23,23,0,0,0-6.08,5.32l6.08,11.3Z" transform="translate(-10.24 -15.71)"/><path class="cls-18" d="M313.05,312.93a7,7,0,0,0-6.13-4.29L300.86,327Z" transform="translate(-10.24 -15.71)"/><path class="cls-22" d="M313.05,312.93,300.86,327l-11.74,14.89c2.3,3.75,6.69,4.65,11.74,1.74,7.42-4.29,13.44-15.2,13.44-24.39A14.52,14.52,0,0,0,313.05,312.93Z" transform="translate(-10.24 -15.71)"/><path class="cls-23" d="M294.78,315.68c-4.37,5.26-7.36,12.61-7.36,19.07a13.75,13.75,0,0,0,1.7,7.12L300.86,327Z" transform="translate(-10.24 -15.71)"/><path class="cls-23" d="M306.92,308.64a11.17,11.17,0,0,0-6.06,1.72,23,23,0,0,0-6.08,5.32l6.08,11.3Z" transform="translate(-10.24 -15.71)"/><path class="cls-23" d="M313.05,312.93a7,7,0,0,0-6.13-4.29L300.86,327Z" transform="translate(-10.24 -15.71)"/><path class="cls-23" d="M313.05,312.93,300.86,327l-11.74,14.89c2.3,3.75,6.69,4.65,11.74,1.74,7.42-4.29,13.44-15.2,13.44-24.39A14.52,14.52,0,0,0,313.05,312.93Z" transform="translate(-10.24 -15.71)"/><path class="cls-6" d="M270.64,327.84l2.2-1.27c.63-.36,1.14-.06,1.14.66v2.12a2.52,2.52,0,0,1-1.14,2l-2.2,1.27c-.63.36-1.14.07-1.14-.66v-2.11A2.53,2.53,0,0,1,270.64,327.84Z" transform="translate(-10.24 -15.71)"/><path class="cls-6" d="M270.64,337.33l2.2-1.27c.63-.37,1.14-.07,1.14.66v2.11a2.5,2.5,0,0,1-1.14,2l-2.2,1.27c-.63.37-1.14.07-1.14-.66V339.3A2.5,2.5,0,0,1,270.64,337.33Z" transform="translate(-10.24 -15.71)"/><path class="cls-21" d="M270.64,337.33l2.2-1.27c.63-.37,1.14-.07,1.14.66v2.11a2.5,2.5,0,0,1-1.14,2l-2.2,1.27c-.63.37-1.14.07-1.14-.66V339.3A2.5,2.5,0,0,1,270.64,337.33Z" transform="translate(-10.24 -15.71)"/><path class="cls-6" d="M270.64,346.81l2.2-1.27c.63-.36,1.14-.07,1.14.66v2.11a2.53,2.53,0,0,1-1.14,2l-2.2,1.27c-.63.36-1.14.06-1.14-.66v-2.12A2.52,2.52,0,0,1,270.64,346.81Z" transform="translate(-10.24 -15.71)"/><path class="cls-18" d="M270.64,346.81l2.2-1.27c.63-.36,1.14-.07,1.14.66v2.11a2.53,2.53,0,0,1-1.14,2l-2.2,1.27c-.63.36-1.14.06-1.14-.66v-2.12A2.52,2.52,0,0,1,270.64,346.81Z" transform="translate(-10.24 -15.71)"/><path class="cls-6" d="M270.64,356.29l2.2-1.27c.63-.36,1.14-.06,1.14.66v2.12a2.52,2.52,0,0,1-1.14,2l-2.2,1.27c-.63.36-1.14.07-1.14-.66v-2.11A2.53,2.53,0,0,1,270.64,356.29Z" transform="translate(-10.24 -15.71)"/><path class="cls-22" d="M270.64,356.29l2.2-1.27c.63-.36,1.14-.06,1.14.66v2.12a2.52,2.52,0,0,1-1.14,2l-2.2,1.27c-.63.36-1.14.07-1.14-.66v-2.11A2.53,2.53,0,0,1,270.64,356.29Z" transform="translate(-10.24 -15.71)"/><path class="cls-20" d="M276.24,327.63a.73.73,0,0,1-.64-.38.74.74,0,0,1,.27-1l6.69-3.86a.75.75,0,0,1,.75,1.29l-6.7,3.87A.79.79,0,0,1,276.24,327.63Z" transform="translate(-10.24 -15.71)"/><path class="cls-20" d="M276.14,337.2a.74.74,0,0,1-.37-1.39l6.69-3.86a.75.75,0,1,1,.75,1.29l-6.7,3.86A.71.71,0,0,1,276.14,337.2Z" transform="translate(-10.24 -15.71)"/><path class="cls-20" d="M276,346.78a.75.75,0,0,1-.38-1.39l6.7-3.86a.74.74,0,0,1,1,.27.76.76,0,0,1-.27,1l-6.7,3.86A.74.74,0,0,1,276,346.78Z" transform="translate(-10.24 -15.71)"/><path class="cls-20" d="M275.93,356.36a.72.72,0,0,1-.64-.37.74.74,0,0,1,.27-1l6.7-3.87a.75.75,0,1,1,.74,1.3l-6.7,3.86A.69.69,0,0,1,275.93,356.36Z" transform="translate(-10.24 -15.71)"/><path class="cls-20" d="M239,390.06a.73.73,0,0,1-.64-.38.74.74,0,0,1,.27-1L270,370.57a.74.74,0,0,1,1,.27.75.75,0,0,1-.28,1L239.36,390A.79.79,0,0,1,239,390.06Z" transform="translate(-10.24 -15.71)"/><path class="cls-20" d="M240,394.7a.74.74,0,0,1-.37-1.39L271,375.21a.74.74,0,1,1,.74,1.29l-31.36,18.1A.69.69,0,0,1,240,394.7Z" transform="translate(-10.24 -15.71)"/><path class="cls-20" d="M241.45,399.19a.75.75,0,0,1-.38-1.39l31.36-18.1a.75.75,0,1,1,.75,1.29l-31.36,18.1A.74.74,0,0,1,241.45,399.19Z" transform="translate(-10.24 -15.71)"/><path class="cls-20" d="M288.21,361.65a.73.73,0,0,1-.64-.37.74.74,0,0,1,.27-1l31.36-18.1a.76.76,0,0,1,1,.27.75.75,0,0,1-.28,1l-31.35,18.1A.75.75,0,0,1,288.21,361.65Z" transform="translate(-10.24 -15.71)"/><path class="cls-20" d="M289.22,366.29a.73.73,0,0,1-.64-.37.74.74,0,0,1,.27-1l31.36-18.1a.76.76,0,0,1,1,.27.75.75,0,0,1-.28,1l-31.35,18.1A.75.75,0,0,1,289.22,366.29Z" transform="translate(-10.24 -15.71)"/><path class="cls-20" d="M290.67,370.78a.75.75,0,0,1-.65-.37.76.76,0,0,1,.27-1l31.36-18.1a.75.75,0,0,1,.75,1.3L291,370.68A.71.71,0,0,1,290.67,370.78Z" transform="translate(-10.24 -15.71)"/><path class="cls-6" d="M250.05,404.28,321.55,363a5.5,5.5,0,0,1,7.16,1.29c1.53,2.09.91,4.83-1.61,6.29l-71.52,41.27c-2.52,1.45-6,1.07-7.51-1S247.54,405.73,250.05,404.28Z" transform="translate(-10.24 -15.71)"/><path class="cls-20" d="M261.85,424.5a.77.77,0,0,1-.65-.37.75.75,0,0,1,.28-1L292.83,405a.76.76,0,0,1,1,.27.75.75,0,0,1-.27,1l-31.36,18.1A.71.71,0,0,1,261.85,424.5Z" transform="translate(-10.24 -15.71)"/><path class="cls-20" d="M257.93,421.73a.75.75,0,0,1-.38-1.39l31.36-18.1a.75.75,0,0,1,1,.28.76.76,0,0,1-.27,1L258.3,421.63A.74.74,0,0,1,257.93,421.73Z" transform="translate(-10.24 -15.71)"/><path class="cls-20" d="M266,426.94a.75.75,0,0,1-.64-.38.74.74,0,0,1,.27-1L297,407.45a.76.76,0,0,1,1,.27.75.75,0,0,1-.28,1l-31.35,18.1A.86.86,0,0,1,266,426.94Z" transform="translate(-10.24 -15.71)"/><path class="cls-20" d="M306.62,398.66a.74.74,0,0,1-.37-1.39l31.35-18.1a.75.75,0,0,1,.75,1.3L307,398.56A.71.71,0,0,1,306.62,398.66Z" transform="translate(-10.24 -15.71)"/><path class="cls-20" d="M302.7,395.89a.75.75,0,0,1-.38-1.39l31.36-18.09a.74.74,0,0,1,1,.27.75.75,0,0,1-.28,1l-31.35,18.1A.84.84,0,0,1,302.7,395.89Z" transform="translate(-10.24 -15.71)"/><path class="cls-20" d="M310.74,401.1a.73.73,0,0,1-.64-.37.74.74,0,0,1,.27-1l31.36-18.1a.75.75,0,1,1,.74,1.3L311.12,401A.75.75,0,0,1,310.74,401.1Z" transform="translate(-10.24 -15.71)"/><path class="cls-6" d="M311.21,423.66c-6.8-3.93-18.34-3.64-25.76.64s-7.92,10.94-1.11,14.87,18.34,3.65,25.76-.63S318,427.6,311.21,423.66Zm-4.63,12.84c-5.3,3.06-13.54,3.27-18.4.46s-4.51-7.57.79-10.63,13.54-3.26,18.41-.45S311.88,433.44,306.58,436.5Z" transform="translate(-10.24 -15.71)"/><path class="cls-6" d="M292.49,428.37c3.18-1.84,8.13-2,11.05-.28s2.7,4.54-.48,6.38-8.13,2-11,.27S289.31,430.2,292.49,428.37Z" transform="translate(-10.24 -15.71)"/><path class="cls-24" d="M292.49,428.37c3.18-1.84,8.13-2,11.05-.28s2.7,4.54-.48,6.38-8.13,2-11,.27S289.31,430.2,292.49,428.37Z" transform="translate(-10.24 -15.71)"/><path class="cls-18" d="M311.21,423.66c-6.8-3.93-18.34-3.64-25.76.64s-7.92,10.94-1.11,14.87,18.34,3.65,25.76-.63S318,427.6,311.21,423.66Zm-4.63,12.84c-5.3,3.06-13.54,3.27-18.4.46s-4.51-7.57.79-10.63,13.54-3.26,18.41-.45S311.88,433.44,306.58,436.5Z" transform="translate(-10.24 -15.71)"/><path class="cls-6" d="M292.32,421.69l1.55,2.78a22.16,22.16,0,0,1,9.13-.17l2.1-2.85A31.15,31.15,0,0,0,292.32,421.69Z" transform="translate(-10.24 -15.71)"/><path class="cls-21" d="M292.32,421.69l1.55,2.78a22.16,22.16,0,0,1,9.13-.17l2.1-2.85A31.15,31.15,0,0,0,292.32,421.69Z" transform="translate(-10.24 -15.71)"/><path class="cls-20" d="M298.71,420.31h0a.75.75,0,0,1-.7-.79l.21-3.42,13.78-8a.75.75,0,0,1,.75,1.3L299.61,417l-.16,2.62A.74.74,0,0,1,298.71,420.31Z" transform="translate(-10.24 -15.71)"/><path class="cls-6" d="M351.52,400.41c-6.81-3.93-18.34-3.64-25.77.64s-7.92,10.94-1.11,14.87,18.35,3.65,25.77-.63S358.33,404.34,351.52,400.41Zm-4.63,12.84c-5.3,3.06-13.54,3.27-18.41.46s-4.5-7.57.8-10.63,13.54-3.26,18.4-.45S352.19,410.19,346.89,413.25Z" transform="translate(-10.24 -15.71)"/><path class="cls-6" d="M332.8,405.12c3.18-1.84,8.12-2,11-.28s2.71,4.54-.48,6.38-8.12,2-11,.27S329.62,407,332.8,405.12Z" transform="translate(-10.24 -15.71)"/><path class="cls-24" d="M332.8,405.12c3.18-1.84,8.12-2,11-.28s2.71,4.54-.48,6.38-8.12,2-11,.27S329.62,407,332.8,405.12Z" transform="translate(-10.24 -15.71)"/><path class="cls-18" d="M351.52,400.41c-6.81-3.93-18.34-3.64-25.77.64s-7.92,10.94-1.11,14.87,18.35,3.65,25.77-.63S358.33,404.34,351.52,400.41Zm-4.63,12.84c-5.3,3.06-13.54,3.27-18.41.46s-4.5-7.57.8-10.63,13.54-3.26,18.4-.45S352.19,410.19,346.89,413.25Z" transform="translate(-10.24 -15.71)"/><path class="cls-6" d="M351.52,400.41c-5.75-3.32-14.87-3.62-22-1.05l2.46,2.51c5.12-1.83,11.63-1.61,15.74.76a8.85,8.85,0,0,1,1.87,1.43l4.59-1.64A12.38,12.38,0,0,0,351.52,400.41Z" transform="translate(-10.24 -15.71)"/><path class="cls-21" d="M351.52,400.41c-5.75-3.32-14.87-3.62-22-1.05l2.46,2.51c5.12-1.83,11.63-1.61,15.74.76a8.85,8.85,0,0,1,1.87,1.43l4.59-1.64A12.38,12.38,0,0,0,351.52,400.41Z" transform="translate(-10.24 -15.71)"/><path class="cls-20" d="M339.13,397h-.05a.75.75,0,0,1-.7-.79l.21-3.43,13.78-7.95a.75.75,0,0,1,.75,1.29L340,393.66l-.16,2.63A.74.74,0,0,1,339.13,397Z" transform="translate(-10.24 -15.71)"/><path class="cls-20" d="M303,448.3a.75.75,0,0,1-.38-1.4L378.74,403a.74.74,0,1,1,.74,1.29L303.33,448.2A.86.86,0,0,1,303,448.3Z" transform="translate(-10.24 -15.71)"/><path class="cls-20" d="M307.07,450.66a.75.75,0,0,1-.37-1.39l76.15-43.94a.75.75,0,1,1,.75,1.29l-76.15,43.94A.75.75,0,0,1,307.07,450.66Z" transform="translate(-10.24 -15.71)"/><path class="cls-20" d="M311.18,453a.75.75,0,0,1-.64-.38.74.74,0,0,1,.27-1L387,407.7a.74.74,0,0,1,.74,1.29l-76.15,43.95A.86.86,0,0,1,311.18,453Z" transform="translate(-10.24 -15.71)"/></g></g></svg>